<svg width="296" height="72" viewBox="0 0 296 72" fill="none" xmlns="http://www.w3.org/2000/svg">
<path d="M172.7 1H152.9L134.5 26.6L144.5 40.5C144.7 40.8 145.1 40.8 145.3 40.5L173.2 1.8C173.3 1.5 173.1 1 172.7 1Z" fill="url(#paint0_linear)"/>
<path d="M120.9 1.00038C110.2 1.00038 104 13.1004 110.2 21.8004L123.6 40.4004C123.8 40.7004 124.2 40.7004 124.4 40.4004L152.8 0.900391H120.9V1.00038Z" fill="#E62731"/>
<path d="M98.3008 5.39961C96.2008 3.89961 93.9008 2.69961 91.2008 2.09961C88.6008 1.39961 86.0008 1.09961 83.4008 1.09961H70.1008C69.7008 1.09961 69.3008 1.39961 69.3008 1.89961V39.9996C69.3008 40.3996 69.6008 40.7996 70.1008 40.7996H83.4008C86.0008 40.7996 88.6008 40.3996 91.2008 39.6996C93.8008 38.8996 96.2008 37.6996 98.3008 36.0996C100.401 34.4996 102.101 32.3996 103.401 29.8996C104.701 27.3996 105.401 24.3996 105.401 20.8996C105.401 17.1996 104.701 13.9996 103.401 11.4996C102.101 8.9996 100.401 6.89961 98.3008 5.39961ZM96.4008 27.4996C95.5008 29.2996 94.3008 30.5996 92.8008 31.6996C91.3008 32.6996 89.7008 33.4996 87.8008 33.8996C86.0008 34.2996 84.1008 34.4996 82.3008 34.4996H76.4008V7.09961H82.3008C84.1008 7.09961 86.0008 7.29962 87.8008 7.69962C89.6008 8.09962 91.3008 8.79961 92.8008 9.79961C94.3008 10.7996 95.5008 12.1996 96.4008 13.9996C97.3008 15.7996 97.8008 18.0996 97.8008 20.8996C97.8008 23.4996 97.3008 25.7996 96.4008 27.4996Z" fill="#46484D"/>
<path d="M217.399 1H211.899C211.499 1 211.099 1.3 211.099 1.8V30.7H210.999L194.399 4C193.299 2.2 191.199 1 189.099 1H183.999C183.599 1 183.199 1.3 183.199 1.8V39.9C183.199 40.3 183.499 40.7 183.999 40.7H189.499C189.899 40.7 190.299 40.4 190.299 39.9V10H190.399L207.399 37.6C208.499 39.5 210.599 40.6 212.699 40.6H217.399C217.799 40.6 218.199 40.3 218.199 39.8V1.70001C218.099 1.40001 217.799 1 217.399 1Z" fill="#46484D"/>
<path d="M172.599 7.19984L166.599 15.4998C166.299 15.8998 166.199 16.2998 166.199 16.7998V39.7998C166.199 40.1998 166.499 40.5998 166.999 40.5998H172.499C172.899 40.5998 173.299 40.2998 173.299 39.7998V7.29983C173.199 7.09983 172.799 6.99984 172.599 7.19984Z" fill="#46484D"/>
<path d="M260.799 18.1H250.899C250.599 18.1 250.199 18.3 249.999 18.5L246.599 23C246.299 23.4 246.599 23.9 246.999 23.9H254.699V34C252.499 34.9 249.799 35.4 246.799 35.4C244.599 35.4 242.599 35 240.899 34.3C240.199 34 239.499 33.6 238.899 33.2C237.999 32.6 237.199 32 236.499 31.2C235.299 29.9 234.399 28.4 233.699 26.6C232.999 24.8 232.699 22.9 232.699 20.7C232.699 18.8 232.999 17.1 233.499 15.5C233.599 15.3 233.599 15.2 233.699 15C234.399 13.2 235.299 11.7 236.499 10.4C237.699 9.10001 239.099 8.1 240.799 7.3C242.499 6.6 244.399 6.20001 246.499 6.20001C248.599 6.20001 250.599 6.60001 252.399 7.40001C253.699 8.00001 254.899 8.60001 255.699 9.40001C255.999 9.70001 256.599 9.6 256.799 9.3L260.099 4.90001C260.399 4.50001 260.299 4 259.899 3.8C258.499 2.8 256.899 2.00001 254.999 1.40001C252.399 0.500009 249.499 0 246.299 0C243.199 0 240.399 0.5 237.799 1.5C235.199 2.5 232.899 3.90001 230.999 5.60001C229.999 6.50001 229.099 7.60001 228.299 8.70001C227.599 9.80001 226.999 10.9 226.399 12.1C225.299 14.7 224.699 17.5 224.699 20.7C224.699 21.3 224.699 21.9 224.799 22.4C224.999 24.8 225.499 27.1 226.299 29.2C227.399 31.8 228.799 34 230.799 35.8C232.699 37.6 234.999 39.1 237.599 40.1C240.299 41.1 243.199 41.6 246.399 41.6C249.499 41.6 252.299 41.3 254.699 40.8C256.899 40.3 258.899 39.7 260.699 38.8C261.099 38.6 261.299 38.2 261.299 37.8V18.7C261.599 18.4 261.299 18.1 260.799 18.1Z" fill="#46484D"/>
<path d="M20.2 22.9002C22.5 22.2002 24.3 21.3002 26 19.5002C27.6 17.7002 28.4 15.3002 28.4 12.5002C28.4 10.4002 28 8.6002 27.2 7.2002C26.4 5.7002 25.3 4.6002 23.9 3.7002C22.5 2.8002 21 2.20019 19.2 1.80019C17.4 1.40019 15.6 1.2002 13.8 1.2002H0.799988C0.399988 1.2002 0 1.50018 0 2.00018V40.1002C0 40.5002 0.299988 40.9002 0.799988 40.9002H6.29999C6.69999 40.9002 7.10001 40.6002 7.10001 40.1002V24.1002H13.2L21.8 40.3002C22 40.7002 22.4 40.9002 22.8 40.9002H28.8C29.3 40.9002 29.6 40.4002 29.4 39.9002L20.2 22.9002ZM18.6 17.0002C17.8 17.4002 16.9 17.7002 15.9 17.8002C14.9 18.0002 13.9 18.0002 12.9 18.0002H7.10001V6.90019H13.5C14.4 6.90019 15.3 7.00019 16.3 7.10019C17.3 7.30019 18.1 7.50019 18.8 7.90019C19.5 8.30019 20.2 8.90019 20.6 9.60019C21.1 10.3002 21.3 11.2002 21.3 12.3002C21.3 13.5002 21 14.5002 20.5 15.2002C20 16.0002 19.4 16.6002 18.6 17.0002Z" fill="#46484D"/>
<path d="M294.199 24.2C293.499 22.9 292.499 21.8 291.399 21C290.299 20.1 288.999 19.5 287.599 18.9C286.199 18.4 284.899 17.9 283.699 17.5C283.599 17.5 283.399 17.4 283.299 17.4C283.099 17.3 282.899 17.3 282.799 17.2C281.999 17 281.299 16.7 280.699 16.5C279.799 16.2 278.999 15.8 278.299 15.3C277.599 14.9 277.099 14.3 276.799 13.7C276.399 13.1 276.199 12.3 276.199 11.4C276.199 10.4 276.399 9.60001 276.799 8.90001C277.199 8.20001 277.799 7.70001 278.499 7.20001C279.199 6.80001 279.899 6.50001 280.699 6.20001C281.499 6.00001 282.299 5.90001 283.199 5.90001C284.599 5.90001 285.999 6.20001 287.299 6.90001C287.799 7.10001 288.299 7.40001 288.699 7.70001C289.099 7.90001 289.499 7.9 289.799 7.5L292.699 3.5C292.999 3.1 292.899 2.60001 292.499 2.40001C291.599 1.90001 290.699 1.50001 289.699 1.10001C287.599 0.400006 285.599 0 283.599 0C281.799 0 279.999 0.200012 278.299 0.700012C276.599 1.20001 274.999 1.9 273.699 2.8C272.299 3.8 271.199 5.00001 270.399 6.40001C269.599 7.90001 269.099 9.60001 269.099 11.6C269.099 13.5 269.399 15 269.999 16.3C270.599 17.6 271.399 18.6 272.299 19.5C273.299 20.4 274.299 21 275.499 21.6C276.599 22.1 277.699 22.5 278.799 22.8C278.899 22.8 278.999 22.9 279.099 22.9C279.099 22.9 279.099 22.9 279.199 22.9C280.399 23.3 281.599 23.7 282.699 24.1C283.799 24.5 284.799 24.9 285.599 25.4C286.399 25.9 287.099 26.5 287.599 27.2C288.099 27.9 288.299 28.8 288.299 29.8C288.299 30.9 288.099 31.8 287.699 32.5C287.299 33.2 286.699 33.8 285.999 34.3C285.299 34.8 284.499 35.1 283.699 35.3C282.799 35.5 281.999 35.6 281.199 35.6C279.599 35.6 277.999 35.2 276.399 34.4C275.099 33.8 273.799 32.9 273.099 32.3C272.799 32 272.199 32.1 271.999 32.4L268.999 36.5C268.799 36.8 268.799 37.3 269.099 37.6C269.899 38.3 271.599 39.5 273.499 40.2C275.999 41.1 278.499 41.6 281.099 41.6C282.999 41.6 284.899 41.3 286.599 40.8C288.399 40.3 289.899 39.5 291.199 38.4C292.499 37.4 293.599 36 294.299 34.5C295.099 32.9 295.499 31.1 295.499 28.9C295.299 27.1 294.899 25.5 294.199 24.2Z" fill="#46484D"/>
<path d="M61.6992 34.4004H42.2992V23.2004H59.6992C60.0992 23.2004 60.4992 22.9004 60.4992 22.4004V18.0004C60.4992 17.6004 60.1992 17.2004 59.6992 17.2004H42.2992V7.10039H47.7992H61.6992C62.0992 7.10039 62.4992 6.80038 62.4992 6.30038V1.70039C62.4992 1.30039 62.1992 0.900391 61.6992 0.900391H43.1992H41.8992C38.1992 0.900391 35.1992 3.90039 35.1992 7.60039V33.9004C35.1992 37.6004 38.1992 40.6004 41.8992 40.6004H61.6992C62.0992 40.6004 62.4992 40.3004 62.4992 39.8004V35.1004C62.4992 34.8004 62.0992 34.4004 61.6992 34.4004Z" fill="#46484D"/>
<path d="M112.299 57.7998C111.699 57.7998 111.199 57.8998 110.599 58.0998C109.999 58.2998 109.599 58.4998 109.299 58.6998C108.999 58.8998 108.599 59.1998 108.299 59.3998C107.999 59.6998 107.799 59.8998 107.699 59.9998C107.599 60.0998 107.499 60.1998 107.499 60.2998L108.699 61.4998L109.099 60.9998C109.399 60.6998 109.799 60.3998 110.399 59.9998C110.999 59.6998 111.599 59.4998 112.299 59.4998C113.199 59.4998 113.999 59.7998 114.599 60.3998C115.199 60.9998 115.499 61.7998 115.499 62.6998L110.499 63.4998C109.299 63.6998 108.299 64.0998 107.699 64.7998C107.099 65.4998 106.699 66.2998 106.699 67.3998C106.699 68.3998 107.099 69.2998 107.999 69.9998C108.899 70.7998 109.999 71.0998 111.299 71.0998C111.799 71.0998 112.299 70.9998 112.799 70.8998C113.299 70.7998 113.699 70.5998 113.999 70.3998C114.299 70.1998 114.599 69.9998 114.799 69.7998C115.099 69.5998 115.199 69.3998 115.299 69.2998C115.399 69.1998 115.399 69.0998 115.499 69.0998V70.7998H117.399V62.5998C117.399 61.1998 116.899 59.9998 115.899 59.0998C114.999 58.2998 113.799 57.7998 112.299 57.7998ZM115.599 65.1998C115.599 66.4998 115.199 67.4998 114.399 68.2998C113.599 69.0998 112.599 69.4998 111.399 69.4998C110.599 69.4998 109.899 69.2998 109.399 68.8998C108.899 68.4998 108.699 67.9998 108.699 67.4998C108.699 66.2998 109.499 65.4998 111.099 65.1998L115.499 64.3998V65.1998H115.599Z" fill="#46484D"/>
<path d="M123.599 58.0996H121.699V70.9996H123.599V58.0996Z" fill="#46484D"/>
<path d="M122.7 52.5C122.4 52.5 122.1 52.6 121.8 52.8C121.6 53 121.5 53.3 121.5 53.7C121.5 54 121.6 54.3 121.8 54.6C122 54.8 122.3 54.9 122.7 54.9C123 54.9 123.3 54.8 123.6 54.6C123.8 54.4 123.9 54.1 123.9 53.7C123.9 53.4 123.8 53.1 123.6 52.8C123.3 52.6 123 52.5 122.7 52.5Z" fill="#46484D"/>
<path d="M132.498 57.9998C131.998 58.0998 131.598 58.2998 131.298 58.4998C130.998 58.6998 130.698 58.8998 130.498 59.0998C130.198 59.2998 130.098 59.4998 129.998 59.5998C129.898 59.6998 129.898 59.7998 129.798 59.7998V58.0998H127.898V70.9998H129.798V63.8998C129.798 62.6998 130.198 61.6998 130.998 60.8998C131.798 60.0998 132.698 59.6998 133.898 59.6998H134.698V57.7998H134.198C133.598 57.7998 132.998 57.7998 132.498 57.9998Z" fill="#46484D"/>
<path d="M139.201 52.0996H137.301V70.8996H139.201V52.0996Z" fill="#46484D"/>
<path d="M144.598 52.5C144.298 52.5 143.998 52.6 143.698 52.8C143.498 53 143.398 53.3 143.398 53.7C143.398 54 143.498 54.3 143.698 54.6C143.898 54.8 144.198 54.9 144.598 54.9C144.898 54.9 145.198 54.8 145.498 54.6C145.698 54.4 145.798 54.1 145.798 53.7C145.798 53.4 145.698 53.1 145.498 52.8C145.198 52.6 144.898 52.5 144.598 52.5Z" fill="#46484D"/>
<path d="M145.502 58.0996H143.602V70.9996H145.502V58.0996Z" fill="#46484D"/>
<path d="M155.901 57.7998C155.401 57.7998 154.901 57.8998 154.401 57.9998C153.901 58.1998 153.501 58.2998 153.201 58.4998C152.901 58.6998 152.601 58.8998 152.401 59.1998C152.101 59.4998 152.001 59.5998 151.901 59.6998C151.801 59.7998 151.801 59.8998 151.701 59.8998V57.9998H149.801V70.8998H151.701V63.7998C151.701 62.4998 152.101 61.4998 152.901 60.6998C153.701 59.8998 154.601 59.4998 155.801 59.4998C156.801 59.4998 157.701 59.7998 158.301 60.4998C159.001 61.1998 159.301 62.0998 159.301 63.1998V70.8998H161.201V63.1998C161.201 61.4998 160.701 60.1998 159.701 59.1998C158.701 58.2998 157.401 57.7998 155.901 57.7998Z" fill="#46484D"/>
<path d="M170.8 57.7998C169.1 57.7998 167.6 58.4998 166.4 59.7998C165.1 61.0998 164.5 62.6998 164.5 64.5998C164.5 66.4998 165.1 68.0998 166.4 69.3998C167.7 70.6998 169.2 71.3998 170.9 71.3998C171.5 71.3998 172.2 71.2998 172.8 71.0998C173.4 70.8998 173.9 70.6998 174.3 70.4998C174.7 70.2998 175.1 69.9998 175.4 69.6998C175.7 69.3998 176 69.1998 176.1 69.0998C176.2 68.9998 176.3 68.8998 176.3 68.7998L175.1 67.5998L174.6 68.0998C174.3 68.4998 173.8 68.7998 173.1 69.1998C172.4 69.5998 171.7 69.6998 170.9 69.6998C169.7 69.6998 168.7 69.2998 167.8 68.3998C166.9 67.5998 166.4 66.4998 166.4 65.3998H176.9L177 64.3998C177 62.4998 176.4 60.9998 175.2 59.7998C174 58.3998 172.6 57.7998 170.8 57.7998ZM166.4 63.5998C166.5 62.4998 167 61.5998 167.9 60.7998C168.7 59.9998 169.7 59.5998 170.9 59.5998C172.1 59.5998 173 59.9998 173.8 60.6998C174.6 61.4998 175.1 62.3998 175.2 63.5998H166.4Z" fill="#46484D"/>
<path d="M187.799 65.2004C187.299 64.7004 186.699 64.3004 186.099 64.0004C185.399 63.8004 184.699 63.5004 184.099 63.4004C183.399 63.2004 182.799 63.0004 182.399 62.6004C181.899 62.3004 181.699 61.9004 181.699 61.4004C181.699 60.9004 181.899 60.5004 182.399 60.1004C182.799 59.7004 183.399 59.5004 184.099 59.5004C184.699 59.5004 185.199 59.6004 185.699 59.9004C186.199 60.1004 186.499 60.3004 186.599 60.5004C186.699 60.6004 186.799 60.8004 186.899 60.9004L188.299 59.6004L188.099 59.4004C187.999 59.3004 187.799 59.2004 187.599 59.0004C187.399 58.8004 187.099 58.6004 186.799 58.5004C186.499 58.3004 186.099 58.2004 185.599 58.1004C185.099 58.0004 184.599 57.9004 184.099 57.9004C182.899 57.9004 181.799 58.3004 180.999 59.0004C180.199 59.7004 179.799 60.6004 179.799 61.5004C179.799 62.3004 179.999 63.0004 180.499 63.5004C180.999 64.0004 181.599 64.4004 182.299 64.6004C182.999 64.8004 183.699 65.1004 184.299 65.3004C184.999 65.5004 185.599 65.8004 185.999 66.1004C186.499 66.4004 186.699 66.9004 186.699 67.4004C186.699 68.0004 186.499 68.5004 185.999 68.9004C185.499 69.3004 184.799 69.5004 183.899 69.5004C183.499 69.5004 183.099 69.4004 182.699 69.3004C182.299 69.2004 181.999 69.0004 181.799 68.8004C181.599 68.6004 181.299 68.4004 181.099 68.2004C180.899 68.0004 180.699 67.8004 180.699 67.8004C180.599 67.7004 180.599 67.6004 180.599 67.6004L179.199 68.9004L179.399 69.1004C179.499 69.3004 179.699 69.4004 179.999 69.7004C180.299 69.9004 180.599 70.1004 180.899 70.4004C181.299 70.6004 181.699 70.8004 182.199 71.0004C182.699 71.2004 183.299 71.2004 183.899 71.2004C185.299 71.2004 186.499 70.8004 187.299 70.1004C188.099 69.4004 188.599 68.4004 188.599 67.3004C188.499 66.5004 188.299 65.8004 187.799 65.2004Z" fill="#46484D"/>
<defs>
<linearGradient id="paint0_linear" x1="134.469" y1="20.8497" x2="173.208" y2="20.8497" gradientUnits="userSpaceOnUse">
<stop stop-color="#B02224"/>
<stop offset="0.0722053" stop-color="#B72226"/>
<stop offset="0.3089" stop-color="#CC252B"/>
<stop offset="0.5444" stop-color="#DA262F"/>
<stop offset="0.7763" stop-color="#E32631"/>
<stop offset="1" stop-color="#E62731"/>
</linearGradient>
</defs>
</svg>
